<mxfile modified="2022-05-02T20:33:03.071Z" host="app.diagrams.net" agent="5.0 (Windows NT 10.0; Win64; x64) AppleWebKit/537.36 (KHTML, like Gecko) Chrome/100.0.4896.127 Safari/537.36 Edg/100.0.1185.50" etag="zvr3pCATrOY1gW1DugYy" compressed="false" version="17.5.0" type="google">
  <diagram id="R0TGMLqBoR5OhYO9nXM6" name="SECURITY VIEW">
    <mxGraphModel grid="1" page="1" gridSize="10" guides="1" tooltips="1" connect="1" arrows="1" fold="1" pageScale="1" pageWidth="827" pageHeight="1169" math="0" shadow="0">
      <root>
        <mxCell id="Ht3oCsUr75H7W70QXAjW-0" />
        <mxCell id="Ht3oCsUr75H7W70QXAjW-1" value="Title" parent="Ht3oCsUr75H7W70QXAjW-0" />
        <mxCell id="Ht3oCsUr75H7W70QXAjW-2" value="Security View" style="text;html=1;strokeColor=none;fillColor=none;align=center;verticalAlign=middle;whiteSpace=wrap;rounded=0;fontSize=48;opacity=30;" vertex="1" parent="Ht3oCsUr75H7W70QXAjW-1">
          <mxGeometry x="160" y="200" width="480" height="320" as="geometry" />
        </mxCell>
        <mxCell id="FOOxdRYcryxS7tMlDGE8-0" value="About" parent="Ht3oCsUr75H7W70QXAjW-0" />
      </root>
    </mxGraphModel>
  </diagram>
</mxfile>
